<svg xmlns="http://www.w3.org/2000/svg" viewBox="0 0 50 50">
  <defs>
    <style>
      .cls-1 {
        fill: #fff;
      }
    </style>
  </defs>
  <g id="noun_Twitter_23267" transform="translate(15 -17.375)">
    <path id="Path_81" data-name="Path 81" class="cls-1" d="M42,176.375a25,25,0,1,0,25,25A25,25,0,0,0,42,176.375Zm12.771,16.269c.036-.042.069-.1.12-.107,0,0-.008.017-.085.16.039.065.077.128.114.194,1.367.265,2.38.606,2.38.828,0,.175-.62.515-1.541.879a16.992,16.992,0,0,1,.931,3.034,13.833,13.833,0,0,1-.759,8.727,14.985,14.985,0,0,1-28.308,1.088,14.853,14.853,0,0,0,14.161,1.964,12.67,12.67,0,0,1-5.411-.787c-6.016-2.279-7.135-9.474-7.135-9.474-.448-2.877.2-3.073,1.434-.437a10.6,10.6,0,0,0,5.769,4.751c.114.044.23.072.346.108-.073-.034-.149-.065-.222-.1-5.675-3.025-5.868-10.307-5.868-10.307-.077-2.909.589-3.022,1.479-.252a10.59,10.59,0,0,0,5.115,5.448,12.7,12.7,0,0,0,6.393,1.491c-1.005-5.595.894-10.617,4.367-11.342a5.363,5.363,0,0,1,4.61,1.537,5.01,5.01,0,0,1,1.356.022c1.8.271,3.28.715,3.28.984,0,.242-1.178.8-2.712,1.3C54.649,192.45,54.709,192.543,54.771,192.644Z" transform="translate(-32 -159)"/>
  </g>
</svg>
