<svg xmlns="http://www.w3.org/2000/svg" viewBox="0 0 50 50">
  <defs>
    <style>
      .cls-1 {
        fill: #fff;
      }
    </style>
  </defs>
  <g id="icons8-github" transform="translate(-0.188 -0.188)">
    <path id="Path_3" data-name="Path 3" class="cls-1" d="M25.188.187a25,25,0,1,0,25,25A25,25,0,0,0,25.188.187Zm0,3.9a21.124,21.124,0,0,1,21.1,21.1A20.776,20.776,0,0,1,46.1,27.87a12.763,12.763,0,0,0-2.927-.427,21.418,21.418,0,0,0-3.354.3,10.76,10.76,0,0,0,.366-2.561,9.918,9.918,0,0,0-2.317-6.22c.549-1.723,1.311-5.64-.183-7.134a7.922,7.922,0,0,0-6.1,2.8,15.782,15.782,0,0,0-5.427-.915,16.229,16.229,0,0,0-5.366.854,7.892,7.892,0,0,0-6.037-2.744c-1.463,1.463-.732,5.236-.183,7.012a9.946,9.946,0,0,0-2.439,6.341,11.034,11.034,0,0,0,.244,2.439c-.64-.053-3.239-.244-4.268-.244a19.783,19.783,0,0,0-3.841.488,20.777,20.777,0,0,1-.183-2.683A21.124,21.124,0,0,1,25.188,4.09ZM8.114,27.87c1.014,0,4.139.282,4.451.3q.08.274.183.549a27.87,27.87,0,0,0-4.634-.061,9.484,9.484,0,0,0-3.476,1.159c-.107-.48-.229-.976-.3-1.463A20.736,20.736,0,0,1,8.114,27.87Zm35.061.061a14.49,14.49,0,0,1,2.866.366c-.03.221-.084.45-.122.671a13.8,13.8,0,0,0-3.293-.549c-.785-.023-2.027.107-2.988.183.046-.122.084-.244.122-.366A25.545,25.545,0,0,1,43.175,27.931Zm-.61.976a14.782,14.782,0,0,1,3.293.549,21.1,21.1,0,0,1-12.866,15.3V41.407a8.618,8.618,0,0,0-3.049-6.22c5.046-.724,8.186-2.957,9.512-6.1C40.363,29.014,41.75,28.884,42.566,28.907ZM9.7,29.09c1.395.008,2.645.076,3.232.122,1.357,3.072,4.474,5.259,9.451,5.976a7.031,7.031,0,0,0-1.524,1.646c-.015.023-.046.038-.061.061-.976,1.174-2.8,1.1-4.512,1.1-1.745,0-2.79-1.395-3.72-2.622a3.725,3.725,0,0,0-2.8-1.4c-.648-.069-.823.259-.488.488a11,11,0,0,1,3.415,4.39,4.068,4.068,0,0,0,3.72,1.951h2.988a5.7,5.7,0,0,0-.061.61v4.024A21.054,21.054,0,0,1,4.761,30.309a9.383,9.383,0,0,1,3.415-1.159A14.625,14.625,0,0,1,9.7,29.09ZM26.163,40.8a.973.973,0,0,1,.976.976v4.39c-.648.061-1.288.122-1.951.122V41.773A.973.973,0,0,1,26.163,40.8Zm-3.9,1.159a.973.973,0,0,1,.976.976v3.232c-.648-.061-1.319-.13-1.951-.244V42.931A.973.973,0,0,1,22.261,41.956Zm7.8,0a.973.973,0,0,1,.976.976v2.5c-.64.183-1.288.366-1.951.488V42.931A.973.973,0,0,1,30.066,41.956Z" transform="translate(0 0)"/>
  </g>
</svg>
